<svg version="1.1" viewBox="0.0 0.0 100.0 100.0" fill="none" stroke="none" stroke-linecap="square" stroke-miterlimit="10" xmlns:xlink="http://www.w3.org/1999/xlink" xmlns="http://www.w3.org/2000/svg"><clipPath id="p.0"><path d="m0 0l100.0 0l0 100.0l-100.0 0l0 -100.0z" clip-rule="nonzero"/></clipPath><g clip-path="url(#p.0)"><path fill="#000000" fill-opacity="0.0" d="m0 0l100.0 0l0 100.0l-100.0 0z" fill-rule="evenodd"/><path fill="#999999" d="m71.908134 15.653543l13.732285 0l0 68.69292l-13.732285 0z" fill-rule="evenodd"/><path stroke="#000000" stroke-width="2.0" stroke-linejoin="round" stroke-linecap="butt" d="m71.908134 15.653543l13.732285 0l0 68.69292l-13.732285 0z" fill-rule="evenodd"/><path fill="#999999" d="m52.72441 25.952755l13.732285 0l0 58.36221l-13.732285 0z" fill-rule="evenodd"/><path stroke="#000000" stroke-width="2.0" stroke-linejoin="round" stroke-linecap="butt" d="m52.72441 25.952755l13.732285 0l0 58.36221l-13.732285 0z" fill-rule="evenodd"/><path fill="#999999" d="m33.540684 37.965878l13.732281 0l0 46.330708l-13.732281 0z" fill-rule="evenodd"/><path stroke="#000000" stroke-width="2.0" stroke-linejoin="round" stroke-linecap="butt" d="m33.540684 37.965878l13.732281 0l0 46.330708l-13.732281 0z" fill-rule="evenodd"/><path fill="#cfe2f3" d="m14.356956 51.698162l13.732284 0l0 32.598423l-13.732284 0z" fill-rule="evenodd"/><path stroke="#000000" stroke-width="2.0" stroke-linejoin="round" stroke-linecap="butt" d="m14.356956 51.698162l13.732284 0l0 32.598423l-13.732284 0z" fill-rule="evenodd"/></g></svg>