<svg version="1.1" viewBox="0.0 0.0 100.0 100.0" fill="none" stroke="none" stroke-linecap="square" stroke-miterlimit="10" xmlns:xlink="http://www.w3.org/1999/xlink" xmlns="http://www.w3.org/2000/svg"><clipPath id="p.0"><path d="m0 0l100.0 0l0 100.0l-100.0 0l0 -100.0z" clip-rule="nonzero"/></clipPath><g clip-path="url(#p.0)"><path fill="#000000" fill-opacity="0.0" d="m0 0l100.0 0l0 100.0l-100.0 0z" fill-rule="evenodd"/><path fill="#3f51b5" d="m1.0558423 16.643457l0 0c0 -9.010555 7.3044996 -16.315056 16.315056 -16.315056l65.25827 0l0 0c4.3270187 0 8.476822 1.7189027 11.536484 4.778569c3.0596695 3.0596666 4.778572 7.209465 4.778572 11.536486l0 66.71226c0 9.010559 -7.3045044 16.315056 -16.315056 16.315056l-65.25827 0c-9.010555 0 -16.315056 -7.304497 -16.315056 -16.315056z" fill-rule="evenodd"/><path fill="#f3f3f3" d="m22.217072 18.161297l0 63.660755l55.59897 0l0 -7.5124893l-43.823643 0l0 -56.148266z" fill-rule="evenodd"/></g></svg>