<svg version="1.1" viewBox="0.0 0.0 100.0 100.0" fill="none" stroke="none" stroke-linecap="square" stroke-miterlimit="10" xmlns:xlink="http://www.w3.org/1999/xlink" xmlns="http://www.w3.org/2000/svg"><clipPath id="p.0"><path d="m0 0l100.0 0l0 100.0l-100.0 0l0 -100.0z" clip-rule="nonzero"/></clipPath><g clip-path="url(#p.0)"><path fill="#000000" fill-opacity="0.0" d="m0 0l100.0 0l0 100.0l-100.0 0z" fill-rule="evenodd"/><path fill="#3f51b5" d="m1.0558423 16.643457l0 0c0 -9.010555 7.3044996 -16.315056 16.315056 -16.315056l65.25827 0l0 0c4.3270187 0 8.476822 1.7189027 11.536484 4.778569c3.0596695 3.0596666 4.778572 7.209465 4.778572 11.536486l0 66.71226c0 9.010559 -7.3045044 16.315056 -16.315056 16.315056l-65.25827 0c-9.010555 0 -16.315056 -7.304497 -16.315056 -16.315056z" fill-rule="evenodd"/><path fill="#f3f3f3" d="m50.67144 25.196274c6.153919 0 10.65295 0.96982574 13.497093 2.9094791c2.8567276 1.9396515 4.2850876 4.4148808 4.2850876 7.425684c0 2.0554504 -0.7361984 3.9613266 -2.2086105 5.7176285c-1.4724121 1.7466545 -3.6243973 3.0204544 -6.4559517 3.8214035c-2.8315582 0.7913017 -6.757988 1.1869507 -11.779282 1.1869507l-23.615196 0l0 -21.061146zm-37.263306 -7.034857l0 63.661118l10.986445 0l0 -28.269703l12.742012 0c2.8315582 0 4.8702774 0.10132599 6.116165 0.30397415c1.6989326 0.31845093 3.3664093 0.88297653 5.0024185 1.6935768c1.6485977 0.8106003 3.5111313 2.2291527 5.5876083 4.2556534c2.076477 2.0265045 4.719265 4.9504585 7.928364 8.771862l10.986443 13.244637l13.818008 0l-14.4409485 -17.326591c-2.869316 -3.3871536 -5.908516 -6.2097816 -9.117619 -8.467884c-1.5101624 -1.042202 -3.7187805 -2.098877 -6.625847 -3.1700287c7.9661217 -0.83955 13.8557625 -2.8081512 17.668926 -5.9058075c3.8131638 -3.0976524 5.719742 -6.904583 5.719742 -11.420784c0 -3.5029564 -1.1514969 -6.701935 -3.4544983 -9.596937c-2.3030014 -2.8950024 -5.379959 -4.9118557 -9.230881 -6.050556c-3.8509178 -1.1483517 -9.47628 -1.7225266 -16.876083 -1.7225266z" fill-rule="evenodd"/></g></svg>